<svg width="24" height="24" viewBox="0 0 24 24" fill="none" xmlns="http://www.w3.org/2000/svg">
<path fill-rule="evenodd" clip-rule="evenodd" d="M3.75655 4.75231C2.63093 5.87681 1.99894 7.40294 2 8.99401V15.006C2 18.305 4.687 21 8 21H22V8.99401C22 5.69501 19.313 3.00001 16 3.00001H8C6.40893 2.99735 4.88217 3.62782 3.75655 4.75231ZM20 8.99401V19H8C5.79411 18.9978 4.00551 17.2119 4 15.006V8.99401C3.99893 7.93337 4.42021 6.91595 5.17076 6.16652C5.92131 5.4171 6.93936 4.99735 8 5.00001H16C18.2059 5.00221 19.9945 6.78813 20 8.99401ZM14 11H16V13H14V11ZM10 11H8V13H10V11Z" fill="white"/>
</svg>
