<svg width="24" height="24" viewBox="0 0 24 24" fill="none" xmlns="http://www.w3.org/2000/svg">
<g opacity="0.5">
<path fill-rule="evenodd" clip-rule="evenodd" d="M2 12C2 17.523 6.477 22 12 22C17.523 22 22 17.523 22 12C22 6.477 17.523 2 12 2C6.477 2 2 6.477 2 12ZM19.9754 11.5C20.2397 15.7122 17.1867 19.4053 13 19.938V14H15L15.5 12H13V10.345C13 9.427 13.044 9.203 13.164 8.977C13.2334 8.84215 13.3431 8.73236 13.478 8.663C13.704 8.542 14.083 8.499 15 8.499H15.501V6.599C14.978 6.524 14.552 6.498 14.223 6.519C13.393 6.572 12.918 6.695 12.536 6.9C12.052 7.15569 11.6561 7.55119 11.4 8.035C11.14 8.524 11 9.009 11 10.346V12H9V14H11V19.938C6.80669 19.4129 3.74511 15.7168 4.00974 11.499C4.27438 7.28128 7.77394 3.99685 12 4C16.2205 4.00523 19.7111 7.28779 19.9754 11.5Z" fill="black"/>
</g>
</svg>
