<svg width="24" height="24" viewBox="0 0 24 24" fill="none" xmlns="http://www.w3.org/2000/svg">
<g opacity="0.5">
<path fill-rule="evenodd" clip-rule="evenodd" d="M16.122 2.06C15.056 2.01 14.717 2 12 2C9.283 2 8.944 2.013 7.878 2.06C6.812 2.11 6.088 2.277 5.45 2.525C4.78243 2.77573 4.17767 3.16923 3.678 3.678C3.1688 4.17732 2.77524 4.78218 2.525 5.45C2.277 6.088 2.11 6.812 2.06 7.878C2.01 8.944 2 9.283 2 12C2 14.717 2.013 15.056 2.06 16.122C2.11 17.187 2.277 17.913 2.525 18.55C2.77593 19.2175 3.16941 19.8222 3.678 20.322C4.17753 20.8309 4.78233 21.2245 5.45 21.475C6.088 21.722 6.813 21.89 7.878 21.94C8.944 21.99 9.283 22 12 22C14.717 22 15.056 21.987 16.122 21.94C17.187 21.89 17.913 21.722 18.55 21.475C19.2173 21.2238 19.822 20.8303 20.322 20.322C20.8311 19.8226 21.2247 19.2178 21.475 18.55C21.722 17.912 21.89 17.187 21.94 16.122C21.99 15.056 22 14.717 22 12C22 9.283 21.987 8.944 21.94 7.878C21.89 6.813 21.722 6.087 21.475 5.45C21.224 4.78259 20.8305 4.1779 20.322 3.678C19.766 3.123 19.21 2.779 18.55 2.525C17.912 2.277 17.187 2.11 16.122 2.06ZM12 4C9.526 4 9.122 4.007 7.971 4.058C7.187 4.095 6.661 4.2 6.173 4.39C5.739 4.558 5.426 4.759 5.093 5.093C4.78001 5.3954 4.53935 5.76458 4.389 6.173C4.199 6.663 4.094 7.188 4.058 7.971C4.006 9.075 4 9.461 4 12C4 14.474 4.007 14.878 4.058 16.029C4.095 16.812 4.2 17.339 4.389 17.826C4.559 18.261 4.759 18.574 5.091 18.906C5.428 19.242 5.741 19.443 6.171 19.609C6.665 19.8 7.191 19.906 7.971 19.942C9.075 19.994 9.461 20 12 20C14.474 20 14.878 19.993 16.029 19.942C16.811 19.905 17.338 19.8 17.826 19.611C18.259 19.442 18.574 19.241 18.906 18.909C19.243 18.572 19.444 18.259 19.61 17.829C19.8 17.336 19.906 16.809 19.942 16.029C19.994 14.925 20 14.539 20 12C20 9.526 19.993 9.122 19.942 7.971C19.905 7.189 19.8 6.661 19.61 6.173C19.4593 5.765 19.2191 5.39596 18.907 5.093C18.6047 4.77985 18.2355 4.53917 17.827 4.389C17.337 4.199 16.811 4.094 16.029 4.058C14.925 4.006 14.539 4 12 4ZM17.25 8C17.9404 8 18.5 7.44036 18.5 6.75C18.5 6.05964 17.9404 5.5 17.25 5.5C16.5596 5.5 16 6.05964 16 6.75C16 7.44036 16.5596 8 17.25 8ZM12 7C14.7614 7 17 9.23858 17 12C17 14.7614 14.7614 17 12 17C9.23858 17 7 14.7614 7 12C7 9.23858 9.23858 7 12 7ZM12 9C10.3431 9 9 10.3431 9 12C9 13.6569 10.3431 15 12 15C13.6569 15 15 13.6569 15 12C15 10.3431 13.6569 9 12 9Z" fill="black"/>
</g>
</svg>
