<svg width="24" height="24" viewBox="0 0 24 24" fill="none" xmlns="http://www.w3.org/2000/svg">
<g opacity="0.5">
<path fill-rule="evenodd" clip-rule="evenodd" d="M12 22C6.477 22 2 17.523 2 12C2 6.477 6.477 2 12 2C17.523 2 22 6.477 22 12C22 17.523 17.523 22 12 22ZM12 20C16.4183 20 20 16.4183 20 12C20 7.58172 16.4183 4 12 4C7.58172 4 4 7.58172 4 12C4 16.4183 7.58172 20 12 20ZM6.392 12.391L8.89 13.17V13.171L8.902 13.163L9.772 16.034C9.885 16.344 10.039 16.4 10.226 16.374C10.4081 16.3498 10.5067 16.2543 10.6235 16.1411C10.6273 16.1374 10.6312 16.1337 10.635 16.13L11.824 14.982L14.375 16.87C14.84 17.127 15.175 16.994 15.291 16.437L16.948 8.617C17.131 7.888 16.811 7.597 16.246 7.827L6.513 11.587C5.849 11.854 5.852 12.226 6.392 12.391Z" fill="black"/>
</g>
</svg>
